HIERARCHY
ROOT Hips
{
 OFFSET 0.000000 0.000000 0.000000
 CHANNELS 6 Xposition Yposition Zposition Yrotation Xrotation Zrotation
 JOINT Chest
 {
  OFFSET 0.000000 9.585900 0.002600
  CHANNELS 3 Yrotation Xrotation Zrotation
  JOINT Chest2
  {
   OFFSET 0.000000 9.601200 -0.005300
   CHANNELS 3 Yrotation Xrotation Zrotation
   JOINT Chest3
   {
    OFFSET 0.000000 9.561800 0.000000
    CHANNELS 3 Yrotation Xrotation Zrotation
    JOINT Chest4
    {
     OFFSET 0.000000 9.552100 0.000000
     CHANNELS 3 Yrotation Xrotation Zrotation
     JOINT Neck
     {
      OFFSET 0.000000 14.453000 0.000000
      CHANNELS 3 Yrotation Xrotation Zrotation
      JOINT Head
      {
       OFFSET 0.000000 8.936500 -0.011300
       CHANNELS 3 Yrotation Xrotation Zrotation
       End Site
       {
        OFFSET 0.000000 17.073600 -0.006000
       }
      }
     }
     JOINT RightCollar
     {
      OFFSET -2.921100 9.558500 0.000000
      CHANNELS 3 Yrotation Xrotation Zrotation
      JOINT RightShoulder
      {
       OFFSET -13.519700 0.000000 0.000000
       CHANNELS 3 Yrotation Xrotation Zrotation
       JOINT RightElbow
       {
        OFFSET 0.000000 -29.696600 0.000000
        CHANNELS 3 Yrotation Xrotation Zrotation
        JOINT RightWrist
        {
         OFFSET 0.000000 -24.004700 0.000000
         CHANNELS 3 Yrotation Xrotation Zrotation
         End Site
         {
          OFFSET 0.000000 -17.728500 0.000000
         }
        }
       }
      }
     }
     JOINT LeftCollar
     {
      OFFSET 2.921100 9.558500 0.000000
      CHANNELS 3 Yrotation Xrotation Zrotation
      JOINT LeftShoulder
      {
       OFFSET 13.519700 0.000000 0.000000
       CHANNELS 3 Yrotation Xrotation Zrotation
       JOINT LeftElbow
       {
        OFFSET 0.000000 -29.696600 0.000000
        CHANNELS 3 Yrotation Xrotation Zrotation
        JOINT LeftWrist
        {
         OFFSET 0.000000 -24.004700 0.000000
         CHANNELS 3 Yrotation Xrotation Zrotation
         End Site
         {
          OFFSET 0.000000 -17.728500 0.000000
         }
        }
       }
      }
     }
    }
   }
  }
 }
 JOINT RightHip
 {
  OFFSET -7.771700 -0.012900 -0.001300
  CHANNELS 3 Yrotation Xrotation Zrotation
  JOINT RightKnee
  {
   OFFSET 0.000000 -40.869800 0.001200
   CHANNELS 3 Yrotation Xrotation Zrotation
   JOINT RightAnkle
   {
    OFFSET 0.000000 -39.717900 0.002100
    CHANNELS 3 Yrotation Xrotation Zrotation
    JOINT RightToe
    {
     OFFSET 0.000000 -4.965400 11.033500
     CHANNELS 3 Yrotation Xrotation Zrotation
     End Site
     {
      OFFSET 0.000000 -1.423100 5.872300
     }
    }
   }
  }
 }
 JOINT LeftHip
 {
  OFFSET 7.771700 -0.012900 -0.001300
  CHANNELS 3 Yrotation Xrotation Zrotation
  JOINT LeftKnee
  {
   OFFSET 0.000000 -40.869800 0.001200
   CHANNELS 3 Yrotation Xrotation Zrotation
   JOINT LeftAnkle
   {
    OFFSET 0.000000 -39.717900 0.002100
    CHANNELS 3 Yrotation Xrotation Zrotation
    JOINT LeftToe
    {
     OFFSET 0.000000 -4.965400 11.033500
     CHANNELS 3 Yrotation Xrotation Zrotation
     End Site
     {
      OFFSET 0.000000 -1.423100 5.872300
     }
    }
   }
  }
 }
}
MOTION
Frames: 9
Frame Time: 0.008333
0.000000 85.388000 0.000000 0.000000 -5.767877 0.000000 0.000000 11.653817 0.000000 0.000000 -5.885947 0.000000 0.000000 -0.000000 0.000000 0.000000 -0.000000 0.000000 0.000000 12.528835 0.000000 0.000000 0.711642 0.000000 0.000000 -0.000000 0.000000 0.000000 0.000000 -90.000000 0.000000 -2.309062 0.000000 0.000000 2.309062 0.000000 0.000000 -0.000000 0.000000 0.000000 -0.000000 90.000000 0.000000 -2.309062 0.000000 0.000000 2.309062 0.000000 0.000000 8.520406 0.000000 0.000000 1.905762 0.000000 -0.000000 -4.658285 0.000000 0.000000 -0.000000 0.000000 0.000000 8.520406 0.000000 0.000000 1.905762 0.000000 -0.000000 -4.658285 0.000000 0.000000 -0.000000 0.000000
-105.426571 57.813356 95.778082 176.633339 -31.932040 -1.818622 1.724115 21.088366 3.454638 0.135497 2.795649 0.419327 0.225921 4.563741 0.703403 1.269294 17.938352 2.878982 2.020708 15.228277 -3.365651 5.010844 -7.310530 -7.029337 1.915479 -3.409180 -1.651429 16.193197 -19.915850 -19.924807 131.917170 -78.937114 -89.745599 23.781681 -17.908041 -47.634605 -3.899184 -3.444727 -3.872404 -3.748673 -8.531949 -2.223923 44.194115 -37.230053 -79.545666 3.126664 -4.908725 -2.727931 9.253846 -43.442336 -5.161115 -8.617344 68.445933 -9.726401 7.997816 22.748310 8.824069 -0.260209 -16.581660 1.577251 -5.574008 -40.867486 3.423223 24.966920 65.396226 21.430568 -16.990682 6.042885 -1.750810 0.021624 0.090363 0.021147
-105.425214 57.815244 95.779318 176.631018 -31.932895 -1.816183 1.735668 21.083429 3.418989 0.134923 2.795399 0.434255 0.235357 4.554647 0.658782 1.276937 17.940002 2.863147 1.720364 15.355609 -3.194743 4.379521 -7.109304 -6.592700 1.975303 -3.430430 -1.686633 16.145575 -19.877380 -19.642879 130.321607 -78.945525 -88.245831 23.776733 -17.930916 -47.760834 -3.873953 -3.397666 -3.845246 -3.682618 -8.570634 -2.427268 44.215050 -37.252805 -79.482797 3.116362 -4.816915 -2.648251 9.294176 -43.445409 -5.183240 -8.660831 68.450365 -9.751694 8.011249 22.762443 8.836002 -0.263372 -16.596731 1.576275 -5.586419 -40.867934 3.448522 24.954778 65.406777 21.397434 -17.000891 6.048327 -1.750965 0.029534 0.084389 0.023865
-105.423836 57.816996 95.782582 176.626819 -31.922223 -1.809270 1.741920 21.071953 3.381569 0.137420 2.791302 0.418654 0.234463 4.551893 0.660866 1.285944 17.941941 2.871217 1.415882 15.471611 -3.058300 3.777762 -6.914662 -6.155646 2.038963 -3.454958 -1.763763 16.218360 -19.837415 -19.418759 128.765539 -78.902255 -86.854772 23.762905 -17.941416 -47.903418 -3.898593 -3.391623 -3.858791 -3.600724 -8.525667 -2.663225 44.260840 -37.332956 -79.416690 3.116870 -4.750922 -2.603432 9.341887 -43.458833 -5.209182 -8.681325 68.448491 -9.762372 8.019318 22.784425 8.858589 -0.269854 -16.614196 1.573697 -5.601426 -40.879768 3.473748 24.952311 65.410922 21.369862 -17.014952 6.061283 -1.755799 0.036588 0.075505 0.029306
-105.424415 57.818381 95.788086 176.653190 -31.897167 -1.802843 1.716529 21.045316 3.331570 0.137137 2.787190 0.403680 0.233329 4.554494 0.682693 1.283592 17.941167 2.853744 1.124719 15.575353 -2.913762 3.197388 -6.723233 -5.717726 2.098073 -3.475233 -1.831893 16.397084 -19.802569 -19.279710 127.622276 -78.851082 -85.946401 23.750130 -17.910630 -48.003225 -3.926481 -3.424425 -3.846522 -3.545273 -8.410327 -2.932203 44.323750 -37.437067 -79.358486 3.132755 -4.724063 -2.601405 9.415711 -43.479094 -5.283392 -8.752460 68.449569 -9.789264 8.014469 22.796083 8.859696 -0.257119 -16.623928 1.576241 -5.632414 -40.900617 3.481788 24.957560 65.395125 21.334293 -17.025552 6.081753 -1.744839 0.034925 0.074258 0.025987
-105.423437 57.821744 95.792147 176.677825 -31.886831 -1.799358 1.698247 21.025761 3.291022 0.136135 2.782374 0.398738 0.228298 4.563879 0.692102 1.270202 17.929708 2.798963 0.863151 15.675623 -2.727102 2.633358 -6.533120 -5.279142 2.135679 -3.471316 -1.810011 16.682653 -19.772339 -19.283790 126.465578 -78.752657 -85.018721 23.721463 -17.919128 -48.148170 -3.927543 -3.425449 -3.785182 -3.545213 -8.297460 -3.197780 44.405509 -37.533934 -79.323369 3.154823 -4.726805 -2.647416 9.438846 -43.482766 -5.313029 -8.749064 68.445986 -9.784543 8.007578 22.806905 8.868678 -0.252010 -16.633885 1.580653 -5.660315 -40.903671 3.489200 24.955974 65.379328 21.299787 -17.035345 6.096660 -1.737709 0.035005 0.072725 0.024518
-105.421168 57.826356 95.795293 176.690207 -31.887852 -1.791871 1.693299 21.008884 3.253344 0.134913 2.777053 0.394005 0.225966 4.564045 0.687446 1.243678 17.885540 2.714189 0.632262 15.811835 -2.491901 2.083411 -6.346546 -4.837750 2.176901 -3.416661 -1.741165 16.988478 -19.750566 -19.371453 125.791837 -78.637658 -84.557837 23.667914 -17.909328 -48.266767 -3.920455 -3.377108 -3.687200 -3.580582 -8.183060 -3.422436 44.505738 -37.609918 -79.318247 3.176865 -4.741197 -2.733476 9.461761 -43.473147 -5.323026 -8.670328 68.437481 -9.726222 7.978683 22.821686 8.889777 -0.258622 -16.644398 1.587656 -5.679040 -40.878117 3.508072 24.917732 65.352949 21.223232 -17.053174 6.087661 -1.735108 0.042834 0.093198 0.027402
-105.417030 57.831380 95.798062 176.696572 -31.896233 -1.787371 1.698364 20.991247 3.220369 0.133803 2.771136 0.389300 0.221605 4.563782 0.682471 1.230208 17.853589 2.664284 0.389343 15.928986 -2.285063 1.542754 -6.166720 -4.391041 2.212209 -3.369859 -1.736569 17.247854 -19.743868 -19.483427 125.630367 -78.558129 -84.582869 23.627011 -17.889327 -48.331304 -3.932201 -3.369948 -3.625482 -3.636501 -8.049657 -3.587229 44.624151 -37.665991 -79.343404 3.192568 -4.758821 -2.844404 9.479634 -43.457164 -5.319414 -8.651182 68.429312 -9.719183 7.957324 22.824636 8.894565 -0.264349 -16.645004 1.600698 -5.679586 -40.853014 3.509628 24.886999 65.336075 21.181502 -17.054147 6.075587 -1.735943 0.039512 0.107833 0.027541
-105.414544 57.834776 95.802368 176.712199 -31.895157 -1.773660 1.689354 20.967241 3.177655 0.139904 2.754673 0.376111 0.210217 4.564028 0.678683 1.232797 17.826797 2.630643 0.138415 16.029667 -2.090852 1.003306 -5.995464 -3.937315 2.210152 -3.319901 -1.732935 17.469444 -19.745896 -19.640963 125.876053 -78.496308 -84.950796 23.586038 -17.871957 -48.359245 -3.943456 -3.369066 -3.579317 -3.721840 -7.933116 -3.688961 44.751357 -37.703430 -79.392452 3.191384 -4.764197 -2.966796 9.495053 -43.450328 -5.340629 -8.622666 68.424989 -9.699774 7.944641 22.821048 8.892432 -0.264544 -16.641019 1.612085 -5.673174 -40.840973 3.491035 24.866490 65.309840 21.143536 -17.055350 6.084117 -1.725040 0.029506 0.114896 0.023980
